<?xml version="1.0" encoding="utf-8"?>
<!-- Generator: Adobe Illustrator 24.3.0, SVG Export Plug-In . SVG Version: 6.00 Build 0)  -->
<svg version="1.1" id="Layer_1" xmlns="http://www.w3.org/2000/svg" xmlns:xlink="http://www.w3.org/1999/xlink" x="0px" y="0px"
	 viewBox="0 0 2000 2000" style="enable-background:new 0 0 2000 2000;" xml:space="preserve">
<style type="text/css">
	.st0{fill:#007393;}
	.st1{fill:url(#SVGID_1_);}
	.st2{fill:url(#SVGID_2_);}
	.st3{fill:url(#SVGID_3_);}
	.st4{fill:url(#SVGID_4_);}
	.st5{fill:url(#SVGID_5_);}
	.st6{fill:url(#SVGID_6_);}
	.st7{fill:url(#SVGID_7_);}
	.st8{fill:url(#SVGID_8_);}
	.st9{fill:url(#SVGID_9_);}
</style>
<g>
	<path class="st0" d="M536.9,957.5h7.3v99.44c0,13.53-4.72,25.01-14.14,34.44c-9.43,9.43-20.98,14.14-34.67,14.14
		c-16.42,0-29.42-6.31-39-18.93l0.46-11.4c4.26,7.3,9.84,13.11,16.76,17.45c6.92,4.33,14.18,6.5,21.78,6.5
		c11.25,0,20.98-4.07,29.19-12.2c8.21-8.14,12.32-17.9,12.32-29.31v-17.33c-7.45,14.9-20.45,22.35-39,22.35
		c-12.62,0-23.42-4.45-32.39-13.34c-8.97-8.9-13.46-19.58-13.46-32.04V957.5h7.3v59.75c0,10.49,3.84,19.61,11.52,27.37
		c7.68,7.76,16.76,11.63,27.25,11.63c10.49,0,19.57-3.88,27.25-11.63c7.68-7.75,11.52-16.88,11.52-27.37V957.5z"/>
	<path class="st0" d="M536.9,889.54h7.3v103.54l40.6-35.58h9.35l-46.98,41.05l58.84,61.58h-9.81l-52-54.05v54.05h-7.3V889.54z"/>
</g>
<linearGradient id="SVGID_1_" gradientUnits="userSpaceOnUse" x1="352.7247" y1="1000" x2="697.6867" y2="1000">
	<stop  offset="0" style="stop-color:#8DC63F"/>
	<stop  offset="1" style="stop-color:#007393"/>
</linearGradient>
<path class="st1" d="M525.21,1172.48c-95.11,0-172.48-77.37-172.48-172.48s77.37-172.48,172.48-172.48S697.69,904.89,697.69,1000
	S620.31,1172.48,525.21,1172.48z M525.21,831.37c-92.98,0-168.63,75.65-168.63,168.63s75.65,168.63,168.63,168.63
	s168.63-75.65,168.63-168.63c0-47.74-33.8-70.03-65.79-100.74C597.73,870.16,570.45,831.37,525.21,831.37z"/>
<g>
	<g>
		<polygon class="st0" points="802.09,915.16 768.43,970 734.88,915.34 734.77,915.16 726.37,915.16 764.43,977.17 764.43,1009.66 
			772.03,1009.66 772.03,977.17 810.09,915.16 		"/>
		<polygon class="st0" points="839.95,1001 812.43,939.22 812.33,938.99 804.39,938.99 836.11,1009.43 836.21,1009.66 
			843.53,1009.66 875.23,939.54 875.48,938.99 867.81,938.99 		"/>
		<path class="st0" d="M932.92,942.53c-5.3-3.05-11.41-4.6-18.13-4.6c-6.73,0-12.81,1.55-18.07,4.6
			c-5.26,3.06-9.49,7.32-12.59,12.66c-3.1,5.35-4.67,11.61-4.67,18.6c0,6.91,1.57,13.15,4.67,18.54c3.1,5.39,7.34,9.67,12.59,12.73
			c5.26,3.06,11.33,4.6,18.07,4.6c6.73,0,12.83-1.55,18.13-4.6c5.3-3.05,9.54-7.34,12.6-12.73c3.05-5.39,4.6-11.63,4.6-18.53
			c0-7-1.55-13.25-4.6-18.6C942.46,949.84,938.22,945.58,932.92,942.53z M942.53,973.79c0,5.71-1.2,10.83-3.57,15.22
			c-2.36,4.38-5.69,7.82-9.9,10.23c-4.2,2.41-9.01,3.63-14.27,3.63s-10.05-1.22-14.2-3.63c-4.16-2.41-7.49-5.85-9.9-10.23
			c-2.41-4.38-3.64-9.5-3.64-15.21c0-5.8,1.22-10.94,3.63-15.28c2.41-4.33,5.74-7.75,9.9-10.17c4.16-2.41,8.94-3.63,14.2-3.63
			c5.26,0,10.07,1.22,14.27,3.63c4.2,2.41,7.53,5.83,9.9,10.16C941.33,962.85,942.53,967.99,942.53,973.79z"/>
		<path class="st0" d="M1019.75,941.78c-4.28-2.21-9.36-3.32-15.11-3.32c-7.18,0-13.33,1.62-18.28,4.81
			c-3.84,2.48-6.87,5.71-9.05,9.64v-13.92h-7.19v70.66h7.46v-37.61c0-5.54,1.04-10.34,3.1-14.28c2.05-3.93,5.08-7.03,9.02-9.22
			c3.94-2.19,8.66-3.3,14.01-3.3c7,0,12.51,2.03,16.4,6.04c3.88,4.02,5.85,9.96,5.85,17.68v40.69h7.46v-41.22
			c0-6.55-1.21-12.13-3.59-16.58C1027.43,947.39,1024.04,944,1019.75,941.78z"/>
		<path class="st0" d="M1109.86,941.78c-4.28-2.21-9.36-3.32-15.11-3.32c-7.18,0-13.33,1.62-18.28,4.81
			c-3.84,2.48-6.87,5.71-9.05,9.64v-13.92h-7.19v70.66h7.46v-37.61c0-5.54,1.04-10.34,3.1-14.28c2.05-3.93,5.08-7.03,9.02-9.22
			c3.94-2.19,8.66-3.3,14.01-3.3c7,0,12.51,2.03,16.4,6.04c3.88,4.02,5.85,9.96,5.85,17.68v40.69h7.46v-41.22
			c0-6.55-1.21-12.13-3.59-16.58C1117.54,947.39,1114.15,944,1109.86,941.78z"/>
		<path class="st0" d="M1205.9,954.93c-2.92-5.35-6.98-9.56-12.06-12.53c-5.08-2.97-10.89-4.47-17.27-4.47
			c-6.38,0-12.21,1.55-17.34,4.61c-5.13,3.06-9.21,7.32-12.12,12.67c-2.92,5.34-4.4,11.6-4.4,18.6c0,6.91,1.57,13.15,4.67,18.54
			c3.1,5.4,7.43,9.68,12.87,12.73c5.43,3.05,11.78,4.6,18.87,4.6c5.38,0,10.46-0.98,15.08-2.91c4.63-1.93,8.53-4.83,11.6-8.61
			l0.2-0.25l-4.4-5l-0.29,0.35c-2.62,3.24-5.89,5.68-9.69,7.25c-3.82,1.58-7.98,2.38-12.37,2.38c-5.62,0-10.7-1.22-15.08-3.64
			c-4.38-2.41-7.87-5.83-10.36-10.17c-2.24-3.89-3.49-8.35-3.72-13.28h60.08v-0.38c0-0.35,0.02-0.66,0.06-0.95
			c0.05-0.33,0.07-0.64,0.07-0.92C1210.29,966.53,1208.81,960.27,1205.9,954.93z M1153.47,958.24c2.28-4.25,5.45-7.62,9.44-10.03
			c3.98-2.41,8.58-3.63,13.66-3.63c5.17,0,9.79,1.22,13.73,3.63c3.94,2.41,7.11,5.78,9.44,10.03c1.89,3.47,2.99,7.34,3.29,11.55
			h-52.86C1150.52,965.55,1151.63,961.68,1153.47,958.24z"/>
	</g>
	<g>
		<path class="st0" d="M1256.81,1009.28v-93.73h6.83v93.73H1256.81z M1262.7,985.58l-0.27-8.57l59.72-61.46h8.3l-41.78,43.25
			l-3.88,4.15L1262.7,985.58z M1324.97,1009.28l-42.18-48.21l4.69-4.95l45.8,53.16H1324.97z"/>
		<path class="st0" d="M1372.91,1009.28c-6.69,0-12.65-1.52-17.88-4.55c-5.22-3.03-9.37-7.23-12.45-12.59
			c-3.08-5.36-4.62-11.47-4.62-18.35c0-6.96,1.54-13.1,4.62-18.41c3.08-5.31,7.23-9.48,12.45-12.52c5.22-3.03,11.18-4.55,17.88-4.55
			c6.7,0,12.68,1.52,17.94,4.55c5.27,3.04,9.42,7.21,12.45,12.52c3.03,5.31,4.55,11.45,4.55,18.41c0,6.87-1.52,12.99-4.55,18.35
			c-3.04,5.36-7.19,9.55-12.45,12.59C1385.58,1007.76,1379.6,1009.28,1372.91,1009.28z M1372.91,1003.25
			c5.36,0,10.18-1.23,14.46-3.68c4.28-2.45,7.63-5.91,10.04-10.38c2.41-4.46,3.62-9.59,3.62-15.4c0-5.89-1.2-11.05-3.62-15.47
			c-2.41-4.42-5.76-7.85-10.04-10.31c-4.28-2.45-9.11-3.68-14.46-3.68s-10.16,1.23-14.39,3.68c-4.24,2.46-7.59,5.89-10.04,10.31
			c-2.46,4.42-3.68,9.57-3.68,15.47c0,5.8,1.23,10.94,3.68,15.4c2.45,4.46,5.8,7.92,10.04,10.38
			C1362.75,1002.02,1367.55,1003.25,1372.91,1003.25z"/>
		<path class="st0" d="M1455.93,1009.28c-6.69,0-12.65-1.52-17.88-4.55c-5.22-3.03-9.37-7.23-12.45-12.59
			c-3.08-5.36-4.62-11.47-4.62-18.35c0-6.96,1.54-13.1,4.62-18.41c3.08-5.31,7.23-9.48,12.45-12.52c5.22-3.03,11.18-4.55,17.88-4.55
			c6.7,0,12.68,1.52,17.94,4.55c5.27,3.04,9.42,7.21,12.45,12.52c3.03,5.31,4.55,11.45,4.55,18.41c0,6.87-1.52,12.99-4.55,18.35
			c-3.04,5.36-7.19,9.55-12.45,12.59C1468.6,1007.76,1462.62,1009.28,1455.93,1009.28z M1455.93,1003.25
			c5.36,0,10.18-1.23,14.46-3.68c4.28-2.45,7.63-5.91,10.04-10.38c2.41-4.46,3.62-9.59,3.62-15.4c0-5.89-1.2-11.05-3.62-15.47
			c-2.41-4.42-5.76-7.85-10.04-10.31c-4.28-2.45-9.11-3.68-14.46-3.68c-5.36,0-10.16,1.23-14.39,3.68
			c-4.24,2.46-7.59,5.89-10.04,10.31c-2.46,4.42-3.68,9.57-3.68,15.47c0,5.8,1.23,10.94,3.68,15.4c2.45,4.46,5.8,7.92,10.04,10.38
			C1445.77,1002.02,1450.57,1003.25,1455.93,1003.25z"/>
		<path class="st0" d="M1511.63,1008.74v-99.36h6.7v52.09l-1.34,12.18l1.07,12.19v22.9H1511.63z M1546.71,1009.28
			c-6.16,0-11.72-1.43-16.67-4.28c-4.95-2.86-8.88-6.96-11.78-12.32c-2.9-5.36-4.35-11.65-4.35-18.88c0-7.41,1.45-13.75,4.35-19.01
			c2.9-5.27,6.83-9.33,11.78-12.19c4.95-2.86,10.51-4.28,16.67-4.28c6.61,0,12.52,1.5,17.74,4.49c5.22,2.99,9.33,7.14,12.32,12.45
			c2.99,5.31,4.49,11.49,4.49,18.55c0,6.96-1.5,13.12-4.49,18.48c-2.99,5.36-7.1,9.53-12.32,12.52
			C1559.23,1007.78,1553.32,1009.28,1546.71,1009.28z M1546.31,1003.25c5.36,0,10.18-1.23,14.46-3.68
			c4.28-2.45,7.65-5.91,10.11-10.38c2.45-4.46,3.68-9.59,3.68-15.4c0-5.89-1.23-11.05-3.68-15.47c-2.46-4.42-5.82-7.85-10.11-10.31
			c-4.28-2.45-9.11-3.68-14.46-3.68s-10.16,1.23-14.39,3.68c-4.24,2.46-7.59,5.89-10.04,10.31c-2.46,4.42-3.68,9.57-3.68,15.47
			c0,5.8,1.23,10.94,3.68,15.4c2.45,4.46,5.8,7.92,10.04,10.38C1536.16,1002.02,1540.96,1003.25,1546.31,1003.25z"/>
		<path class="st0" d="M1619.69,1009.28c-5.8,0-11.23-0.85-16.27-2.54c-5.04-1.69-8.95-3.84-11.72-6.43l3.08-5.36
			c2.68,2.32,6.25,4.31,10.71,5.96c4.46,1.65,9.28,2.48,14.46,2.48c7.32,0,12.59-1.2,15.8-3.62c3.21-2.41,4.82-5.58,4.82-9.51
			c0-2.86-0.83-5.11-2.48-6.76c-1.65-1.65-3.86-2.92-6.63-3.82c-2.77-0.89-5.8-1.63-9.11-2.21c-3.3-0.58-6.61-1.23-9.91-1.94
			c-3.3-0.71-6.34-1.74-9.11-3.08c-2.77-1.34-4.98-3.19-6.63-5.56c-1.65-2.36-2.48-5.51-2.48-9.44c0-3.57,0.98-6.78,2.95-9.64
			c1.96-2.86,4.91-5.16,8.84-6.9c3.93-1.74,8.84-2.61,14.73-2.61c4.37,0,8.77,0.63,13.19,1.88c4.42,1.25,8.01,2.9,10.78,4.95
			l-3.08,5.36c-2.95-2.23-6.25-3.84-9.91-4.82c-3.66-0.98-7.36-1.47-11.11-1.47c-6.78,0-11.76,1.25-14.93,3.75
			c-3.17,2.5-4.75,5.62-4.75,9.37c0,2.95,0.82,5.29,2.48,7.03c1.65,1.74,3.86,3.08,6.63,4.02c2.77,0.94,5.8,1.7,9.11,2.28
			c3.3,0.58,6.61,1.23,9.91,1.94c3.3,0.71,6.34,1.72,9.11,3.01c2.77,1.29,4.98,3.08,6.63,5.36c1.65,2.28,2.48,5.33,2.48,9.17
			c0,3.84-1.05,7.19-3.15,10.04c-2.1,2.86-5.2,5.09-9.31,6.69C1630.72,1008.47,1625.67,1009.28,1619.69,1009.28z"/>
	</g>
</g>
<g>
	<linearGradient id="SVGID_2_" gradientUnits="userSpaceOnUse" x1="755.985" y1="1043.9124" x2="1092.4603" y2="1197.8926">
		<stop  offset="0" style="stop-color:#8DC63F"/>
		<stop  offset="1" style="stop-color:#007393"/>
	</linearGradient>
	<path class="st2" d="M791.36,1086.16c-3.88,0-7.46-0.64-10.73-1.93c-3.28-1.29-6.11-3.1-8.52-5.46c-2.4-2.35-4.28-5.11-5.64-8.26
		c-1.36-3.15-2.04-6.62-2.04-10.41c0-3.78,0.68-7.25,2.04-10.41c1.36-3.15,3.25-5.91,5.68-8.26c2.43-2.35,5.28-4.17,8.55-5.46
		c3.28-1.29,6.85-1.93,10.73-1.93c3.93,0,7.56,0.67,10.88,2c3.32,1.33,6.15,3.31,8.48,5.93l-4.73,4.59
		c-1.94-2.04-4.12-3.55-6.55-4.55c-2.43-0.99-5.02-1.49-7.79-1.49c-2.86,0-5.52,0.49-7.97,1.46c-2.45,0.97-4.57,2.33-6.37,4.08
		c-1.79,1.75-3.19,3.82-4.18,6.22c-0.99,2.4-1.49,5.01-1.49,7.82c0,2.81,0.5,5.42,1.49,7.82s2.39,4.48,4.18,6.22
		c1.79,1.75,3.92,3.1,6.37,4.07c2.45,0.97,5.11,1.46,7.97,1.46c2.77,0,5.36-0.5,7.79-1.49c2.43-0.99,4.61-2.53,6.55-4.62l4.73,4.58
		c-2.33,2.62-5.16,4.61-8.48,5.97C798.99,1085.48,795.34,1086.16,791.36,1086.16z"/>
	<linearGradient id="SVGID_3_" gradientUnits="userSpaceOnUse" x1="761.9044" y1="1030.9775" x2="1098.3796" y2="1184.9578">
		<stop  offset="0" style="stop-color:#8DC63F"/>
		<stop  offset="1" style="stop-color:#007393"/>
	</linearGradient>
	<path class="st3" d="M839.46,1086.16c-3.88,0-7.33-0.85-10.33-2.55c-3.01-1.7-5.38-4.04-7.13-7.02c-1.75-2.98-2.62-6.37-2.62-10.15
		c0-3.83,0.87-7.23,2.62-10.19c1.75-2.96,4.12-5.28,7.13-6.95c3.01-1.67,6.45-2.51,10.33-2.51c3.83,0,7.27,0.84,10.3,2.51
		c3.03,1.67,5.41,3.98,7.13,6.91c1.72,2.94,2.58,6.34,2.58,10.22c0,3.83-0.86,7.23-2.58,10.19c-1.72,2.96-4.1,5.29-7.13,6.99
		C846.73,1085.31,843.29,1086.16,839.46,1086.16z M839.46,1080.04c2.47,0,4.69-0.56,6.66-1.67c1.97-1.12,3.51-2.7,4.62-4.77
		c1.12-2.06,1.67-4.45,1.67-7.17c0-2.77-0.56-5.15-1.67-7.17c-1.12-2.01-2.66-3.58-4.62-4.69c-1.96-1.12-4.18-1.67-6.66-1.67
		s-4.68,0.56-6.62,1.67s-3.49,2.68-4.66,4.69c-1.16,2.01-1.75,4.4-1.75,7.17c0,2.72,0.58,5.11,1.75,7.17
		c1.16,2.06,2.72,3.65,4.66,4.77C834.78,1079.49,836.99,1080.04,839.46,1080.04z"/>
	<linearGradient id="SVGID_4_" gradientUnits="userSpaceOnUse" x1="770.0051" y1="1013.2761" x2="1106.4803" y2="1167.2562">
		<stop  offset="0" style="stop-color:#8DC63F"/>
		<stop  offset="1" style="stop-color:#007393"/>
	</linearGradient>
	<path class="st4" d="M884.44,1086.16c-2.86,0-5.37-0.48-7.53-1.46c-2.16-0.97-3.82-2.32-4.98-4.04c-1.16-1.72-1.75-3.68-1.75-5.86
		c0-2.09,0.5-3.98,1.49-5.68c0.99-1.7,2.62-3.06,4.88-4.08c2.26-1.02,5.3-1.53,9.13-1.53h12.23v5.02h-11.93
		c-3.49,0-5.85,0.58-7.06,1.75s-1.82,2.57-1.82,4.22c0,1.89,0.75,3.41,2.26,4.55c1.5,1.14,3.59,1.71,6.26,1.71
		c2.62,0,4.91-0.58,6.88-1.75s3.38-2.86,4.26-5.09l1.38,4.8c-0.92,2.28-2.55,4.09-4.88,5.42
		C890.91,1085.49,887.98,1086.16,884.44,1086.16z M897.1,1085.72v-8.15l-0.36-1.53v-13.9c0-2.96-0.86-5.25-2.58-6.88
		c-1.72-1.63-4.31-2.44-7.75-2.44c-2.28,0-4.51,0.38-6.7,1.13s-4.03,1.76-5.53,3.02l-2.91-5.24c1.99-1.6,4.38-2.83,7.17-3.68
		c2.79-0.85,5.71-1.27,8.77-1.27c5.29,0,9.36,1.29,12.23,3.86c2.86,2.57,4.29,6.5,4.29,11.79v23.29H897.1z"/>
	<linearGradient id="SVGID_5_" gradientUnits="userSpaceOnUse" x1="778.9207" y1="993.7938" x2="1115.3959" y2="1147.7739">
		<stop  offset="0" style="stop-color:#8DC63F"/>
		<stop  offset="1" style="stop-color:#007393"/>
	</linearGradient>
	<path class="st5" d="M937.85,1086.16c-3.93,0-7.44-0.85-10.52-2.55c-3.08-1.7-5.49-4.03-7.24-6.99c-1.75-2.96-2.62-6.36-2.62-10.19
		c0-3.83,0.87-7.23,2.62-10.19c1.75-2.96,4.16-5.28,7.24-6.95c3.08-1.67,6.59-2.51,10.52-2.51c3.49,0,6.61,0.69,9.35,2.07
		c2.74,1.38,4.86,3.43,6.37,6.15l-5.31,3.42c-1.26-1.89-2.8-3.29-4.62-4.18c-1.82-0.9-3.77-1.35-5.86-1.35
		c-2.52,0-4.78,0.56-6.77,1.67c-1.99,1.12-3.57,2.68-4.73,4.69c-1.16,2.01-1.75,4.4-1.75,7.17s0.58,5.17,1.75,7.21
		c1.16,2.04,2.74,3.61,4.73,4.73c1.99,1.12,4.24,1.67,6.77,1.67c2.08,0,4.04-0.45,5.86-1.35c1.82-0.9,3.36-2.29,4.62-4.18l5.31,3.35
		c-1.5,2.67-3.63,4.72-6.37,6.15C944.46,1085.44,941.35,1086.16,937.85,1086.16z"/>
	<linearGradient id="SVGID_6_" gradientUnits="userSpaceOnUse" x1="787.2654" y1="975.559" x2="1123.7407" y2="1129.5392">
		<stop  offset="0" style="stop-color:#8DC63F"/>
		<stop  offset="1" style="stop-color:#007393"/>
	</linearGradient>
	<path class="st6" d="M987.05,1047.22c3.15,0,5.93,0.61,8.33,1.82c2.4,1.21,4.28,3.06,5.64,5.53c1.36,2.47,2.04,5.6,2.04,9.39v22.2
		h-6.99v-21.4c0-3.74-0.91-6.55-2.73-8.44c-1.82-1.89-4.38-2.84-7.68-2.84c-2.47,0-4.63,0.48-6.48,1.46
		c-1.84,0.97-3.26,2.4-4.26,4.29c-0.99,1.89-1.49,4.25-1.49,7.06v19.87h-6.99v-54h6.99v25.83l-1.38-2.76
		c1.26-2.52,3.2-4.49,5.82-5.9C980.5,1047.93,983.56,1047.22,987.05,1047.22z"/>
	<linearGradient id="SVGID_7_" gradientUnits="userSpaceOnUse" x1="796.6107" y1="955.1379" x2="1133.0859" y2="1109.1182">
		<stop  offset="0" style="stop-color:#8DC63F"/>
		<stop  offset="1" style="stop-color:#007393"/>
	</linearGradient>
	<path class="st7" d="M1023.87,1040.16c-1.36,0-2.49-0.44-3.38-1.31c-0.9-0.87-1.35-1.94-1.35-3.2c0-1.31,0.45-2.4,1.35-3.28
		c0.9-0.87,2.02-1.31,3.38-1.31c1.36,0,2.49,0.43,3.38,1.27c0.9,0.85,1.35,1.9,1.35,3.17c0,1.31-0.44,2.41-1.31,3.31
		C1026.42,1039.72,1025.28,1040.16,1023.87,1040.16z M1020.38,1086.16v-38.57h6.99v38.57H1020.38z"/>
	<linearGradient id="SVGID_8_" gradientUnits="userSpaceOnUse" x1="799.5829" y1="948.6429" x2="1136.0582" y2="1102.623">
		<stop  offset="0" style="stop-color:#8DC63F"/>
		<stop  offset="1" style="stop-color:#007393"/>
	</linearGradient>
	<path class="st8" d="M1065.65,1047.22c3.15,0,5.93,0.61,8.33,1.82c2.4,1.21,4.28,3.06,5.64,5.53c1.36,2.47,2.04,5.6,2.04,9.39v22.2
		h-6.99v-21.4c0-3.74-0.91-6.55-2.73-8.44c-1.82-1.89-4.38-2.84-7.68-2.84c-2.47,0-4.63,0.48-6.48,1.46
		c-1.84,0.97-3.26,2.4-4.26,4.29c-0.99,1.89-1.49,4.25-1.49,7.06v19.87h-6.99v-38.57h6.69v10.41l-1.09-2.76
		c1.26-2.52,3.2-4.49,5.82-5.9C1059.1,1047.93,1062.15,1047.22,1065.65,1047.22z"/>
	<linearGradient id="SVGID_9_" gradientUnits="userSpaceOnUse" x1="808.0922" y1="930.0488" x2="1144.5674" y2="1084.0289">
		<stop  offset="0" style="stop-color:#8DC63F"/>
		<stop  offset="1" style="stop-color:#007393"/>
	</linearGradient>
	<path class="st9" d="M1114.99,1084.12c-3.74,0-7.07-0.79-10.01-2.37c-2.94-1.58-5.26-3.77-6.99-6.59
		c-1.72-2.81-2.58-6.06-2.58-9.75c0-3.74,0.86-7,2.58-9.79c1.72-2.79,4.05-4.96,6.99-6.51c2.94-1.55,6.27-2.33,10.01-2.33
		c3.3,0,6.31,0.67,9.02,2c2.72,1.33,4.89,3.38,6.51,6.15c1.62,2.76,2.44,6.26,2.44,10.48c0,4.17-0.81,7.64-2.44,10.41
		c-1.63,2.76-3.8,4.84-6.51,6.22C1121.29,1083.43,1118.29,1084.12,1114.99,1084.12z M1115.86,1100.28c-3.54,0-6.98-0.5-10.3-1.49
		c-3.32-0.99-6.03-2.41-8.11-4.26l3.35-5.39c1.79,1.55,4,2.78,6.62,3.68c2.62,0.9,5.36,1.35,8.22,1.35c4.56,0,7.91-1.07,10.04-3.2
		c2.13-2.14,3.2-5.39,3.2-9.75v-8.15l0.73-7.64l-0.36-7.71v-10.55h6.62v33.33c0,6.79-1.7,11.79-5.09,14.99
		C1127.38,1098.68,1122.41,1100.28,1115.86,1100.28z M1115.79,1078.01c2.57,0,4.85-0.53,6.84-1.6c1.99-1.07,3.55-2.55,4.69-4.44
		c1.14-1.89,1.71-4.08,1.71-6.55s-0.57-4.66-1.71-6.55c-1.14-1.89-2.7-3.36-4.69-4.4c-1.99-1.04-4.27-1.56-6.84-1.56
		c-2.57,0-4.86,0.52-6.88,1.56s-3.59,2.51-4.73,4.4c-1.14,1.89-1.71,4.08-1.71,6.55s0.57,4.66,1.71,6.55
		c1.14,1.89,2.72,3.37,4.73,4.44C1110.92,1077.47,1113.22,1078.01,1115.79,1078.01z"/>
</g>
</svg>
